# xmcd
#
# Track frame offsets: 
#        150
#        25385
#        46815
#        63906
#        83013
#        104843
#        129732
#        152709
#        175734
#
# Disc length: 2576 seconds
#
# Revision: 0
# Processed by: cddbd v1.5.2PL0 Copyright (c) Steve Scherf et al.
# Submitted via: ExactAudioCopy v0.99pb4
#
DISCID=710a0e09
DTITLE=Music For Money - X
DYEAR=2009
DGENRE=Instrumental Rock
TTITLE0=Redemption
TTITLE1=La Marche
TTITLE2=Vague
TTITLE3=Plaisir
TTITLE4=La Passagère
TTITLE5=Rendez-vous
TTITLE6=Muero
TTITLE7=Hymne à la Fuite
TTITLE8=Novembre
EXTD=
EXTT0=
EXTT1=
EXTT2=
EXTT3=
EXTT4=
EXTT5=
EXTT6=
EXTT7=
EXTT8=
PLAYORDER=
